Coordinates
version=1
nRows=17
nColumns=38
inDegrees=no

Units are S.I. units (second, meters, Newtons, ...)
If the header above contains a line with 'inDegrees', this indicates whether rotational values are in degrees (yes) or radians (no).

endheader
time	pelvis_tilt	pelvis_list	pelvis_rotation	pelvis_tx	pelvis_ty	pelvis_tz	hip_flexion_r	hip_adduction_r	hip_rotation_r	knee_angle_r	ankle_angle_r	subtalar_angle_r	mtp_angle_r	hip_flexion_l	hip_adduction_l	hip_rotation_l	knee_angle_l	ankle_angle_l	subtalar_angle_l	mtp_angle_l	lumbar_extension	lumbar_bending	lumbar_rotation	arm_flex_r	arm_add_r	arm_rot_r	elbow_flex_r	pro_sup_r	wrist_flex_r	wrist_dev_r	arm_flex_l	arm_add_l	arm_rot_l	elbow_flex_l	pro_sup_l	wrist_flex_l	wrist_dev_l
0	0.3857	1.39022	1.28396	0.672196	-0.668046	1.0055	0.519389	0.0378124	-0.302325	0.0887233	-0.227829	0	0	-0.171037	-0.115273	-0.322412	0.308345	-0.125849	0	0	0.0667806	0.0848362	-0.134039	-0.0836228	-0.194719	0.364204	0.240571	1.5708	0	0	0.0276407	-0.394702	0.387584	0.954644	1.31534	0	0
0.01	0.378535	1.3866	1.29554	0.673264	-0.654261	1.00487	0.517912	0.0408427	-0.265919	0.0896449	-0.257343	0	0	-0.160865	-0.119742	-0.304834	0.342314	-0.13825	0	0	0.0702076	0.0877457	-0.137159	-0.0828494	-0.194642	0.364922	0.235899	1.5708	0	0	0.0258844	-0.388929	0.385968	0.938727	1.31799	0	0
0.02	0.396828	1.38063	1.28034	0.674042	-0.639403	1.00468	0.518973	0.0466576	-0.250339	0.100549	-0.276113	0	0	-0.147829	-0.129963	-0.292776	0.383277	-0.15309	0	0	0.0768713	0.097128	-0.137258	-0.0856778	-0.19675	0.362196	0.232522	1.5708	0	0	0.0231273	-0.378964	0.386291	0.918021	1.31952	0	0
0.03	0.422616	1.37242	1.25632	0.674732	-0.624375	1.00486	0.52281	0.0532745	-0.240271	0.120702	-0.279335	0	0	-0.130943	-0.141446	-0.278326	0.428439	-0.172068	0	0	0.0858082	0.109401	-0.13502	-0.0898179	-0.199988	0.357652	0.230366	1.5708	0	0	0.0208023	-0.366886	0.38863	0.893726	1.32096	0	0
0.04	0.454137	1.36532	1.22486	0.675396	-0.609571	1.00549	0.526176	0.0610699	-0.222145	0.150659	-0.26311	0	0	-0.113293	-0.153099	-0.262093	0.477192	-0.197068	0	0	0.0831511	0.123552	-0.12599	-0.0933608	-0.204821	0.345437	0.236186	1.5708	0	0	0.0214365	-0.355616	0.390321	0.876594	1.32503	0	0
0.05	0.480333	1.35928	1.19515	0.676662	-0.595202	1.00642	0.530394	0.0703975	-0.19184	0.188474	-0.235818	0	0	-0.0938007	-0.16306	-0.243701	0.529049	-0.224237	0	0	0.086006	0.13558	-0.11651	-0.0956308	-0.207972	0.337277	0.237774	1.5708	0	0	0.0210791	-0.344271	0.393745	0.852064	1.32442	0	0
0.06	0.499835	1.35108	1.17333	0.677987	-0.581055	1.00716	0.537479	0.0793614	-0.164433	0.227297	-0.203094	0	0	-0.0678617	-0.172311	-0.218218	0.584882	-0.254209	0	0	0.0923239	0.146437	-0.108834	-0.0976403	-0.21092	0.332216	0.239634	1.5708	0	0	0.0191344	-0.334389	0.398195	0.828221	1.3192	0	0
0.07	0.517998	1.34332	1.1555	0.679149	-0.567028	1.00779	0.542416	0.087471	-0.1486	0.260753	-0.177619	0	0	-0.0399004	-0.180689	-0.185912	0.642227	-0.280886	0	0	0.0985849	0.155472	-0.104852	-0.0991011	-0.214112	0.332978	0.243303	1.5708	0	0	0.0146034	-0.326655	0.401131	0.808332	1.31093	0	0
0.08	0.534444	1.33692	1.14224	0.680059	-0.55311	1.00836	0.543053	0.0937698	-0.146847	0.285618	-0.154507	0	0	-0.0106278	-0.187428	-0.14958	0.700782	-0.30911	0	0	0.104538	0.16249	-0.104051	-0.100131	-0.217503	0.337357	0.248289	1.5708	0	0	0.00922101	-0.320684	0.405126	0.79018	1.29967	0	0
0.09	0.549017	1.33182	1.13254	0.680867	-0.539695	1.00891	0.539662	0.0983878	-0.157308	0.30109	-0.136192	0	0	0.0206486	-0.191989	-0.11062	0.760944	-0.338053	0	0	0.108343	0.167646	-0.104542	-0.0994967	-0.220933	0.343823	0.254577	1.5708	0	0	0.00457687	-0.316486	0.410136	0.774125	1.28526	0	0
0.1	0.568841	1.32959	1.12134	0.681475	-0.526526	1.00959	0.52991	0.1019	-0.170995	0.310497	-0.11933	0	0	0.0511473	-0.195658	-0.0699074	0.820907	-0.367256	0	0	0.108517	0.171356	-0.107805	-0.0976475	-0.223952	0.350137	0.262253	1.5708	0	0	0.00104364	-0.314396	0.417233	0.759814	1.26838	0	0
0.11	0.591629	1.3298	1.11031	0.681827	-0.513505	1.01044	0.515556	0.104236	-0.184672	0.316757	-0.102274	0	0	0.0805675	-0.197948	-0.0295055	0.879143	-0.392679	0	0	0.106031	0.173492	-0.113033	-0.0953363	-0.226761	0.35574	0.271585	1.5708	0	0	-0.00137212	-0.313876	0.426883	0.746424	1.24911	0	0
0.12	0.611491	1.33148	1.10352	0.6819	-0.500632	1.01153	0.498976	0.10501	-0.197548	0.320926	-0.0860565	0	0	0.109334	-0.19773	0.0081521	0.934529	-0.406385	0	0	0.102533	0.174015	-0.118809	-0.0926306	-0.229709	0.359475	0.281789	1.5708	0	0	-0.00226751	-0.313526	0.439187	0.732023	1.22813	0	0
0.13	0.626872	1.33407	1.10054	0.681879	-0.48789	1.01296	0.48105	0.104924	-0.211128	0.322292	-0.0715241	0	0	0.137103	-0.194967	0.0418979	0.985853	-0.403528	0	0	0.0987153	0.173412	-0.122945	-0.0886899	-0.231786	0.357027	0.289956	1.5708	0	0	0.000214713	-0.313191	0.458686	0.713981	1.20559	0	0
0.14	0.636676	1.33672	1.09919	0.68215	-0.475345	1.01475	0.462951	0.105518	-0.222891	0.318789	-0.0631719	0	0	0.163663	-0.19076	0.0684337	1.03227	-0.38361	0	0	0.0942344	0.172049	-0.122246	-0.0838215	-0.233359	0.35037	0.297499	1.5708	0	0	0.00441193	-0.311964	0.479814	0.693689	1.18509	0	0
0.15	0.64233	1.34026	1.09866	0.682711	-0.462842	1.01687	0.443937	0.106656	-0.229491	0.312058	-0.0585404	0	0	0.187919	-0.185352	0.0882286	1.07423	-0.351183	0	0	0.088695	0.169428	-0.117809	-0.0789315	-0.235073	0.342572	0.306463	1.5708	0	0	0.00872962	-0.31093	0.501603	0.673404	1.16664	0	0
0.16	0.64393	1.34415	1.09908	0.683495	-0.450343	1.01919	0.424732	0.108453	-0.231422	0.304811	-0.0556581	0	0	0.210618	-0.179313	0.101298	1.11252	-0.311992	0	0	0.082964	0.16578	-0.11051	-0.0743985	-0.23711	0.332623	0.317428	1.5708	0	0	0.0123273	-0.310075	0.522562	0.653812	1.15121	0	0
